<svg width="80" height="80" viewBox="0 0 80 80" fill="none" xmlns="http://www.w3.org/2000/svg">
<path d="M23.3333 62.3401L33.6666 70.3401C35 71.6734 38 72.3401 40 72.3401H52.6666C56.6666 72.3401 61 69.3401 62 65.3401L70 41.0067C71.6666 36.3401 68.6666 32.3401 63.6666 32.3401H50.3333C48.3333 32.3401 46.6666 30.6734 47 28.3401L48.6666 17.6734C49.3333 14.6734 47.3333 11.3401 44.3333 10.3401C41.6666 9.34006 38.3333 10.6734 37 12.6734L23.3333 33.0067" stroke="white" stroke-width="8" stroke-miterlimit="10"/>
<path d="M7.93335 61.168V28.5013C7.93335 23.8346 9.93335 22.168 14.6 22.168H17.9334C22.6 22.168 24.6 23.8346 24.6 28.5013V61.168C24.6 65.8346 22.6 67.5013 17.9334 67.5013H14.6C9.93335 67.5013 7.93335 65.8346 7.93335 61.168Z" stroke="white" stroke-width="8" stroke-linecap="round" stroke-linejoin="round"/>
</svg>
