<svg width="24" height="24" viewBox="0 0 24 24" fill="none" xmlns="http://www.w3.org/2000/svg">
<g opacity="0.9">
<path d="M16.4107 4.00072C18.3507 4.00072 19.9107 5.57072 19.9107 7.50072C19.9107 9.39072 18.4107 10.9307 16.5407 11.0007C16.4543 10.9907 16.3671 10.9907 16.2807 11.0007M18.3407 20.0007C19.0607 19.8507 19.7407 19.5607 20.3007 19.1307C21.8607 17.9607 21.8607 16.0307 20.3007 14.8607C19.7507 14.4407 19.0807 14.1607 18.3707 14.0007M9.1607 10.8707C9.0607 10.8607 8.9407 10.8607 8.8307 10.8707C7.68291 10.8318 6.59535 10.3476 5.79833 9.52068C5.00132 8.6938 4.55744 7.58918 4.5607 6.44072C4.5607 3.99072 6.5407 2.00072 9.0007 2.00072C10.1769 1.97951 11.3134 2.42641 12.1602 3.24314C13.0069 4.05986 13.4945 5.17949 13.5157 6.35572C13.5369 7.53196 13.09 8.66845 12.2733 9.51517C11.4566 10.3619 10.3369 10.8495 9.1607 10.8707ZM4.1607 14.5607C1.7407 16.1807 1.7407 18.8207 4.1607 20.4307C6.9107 22.2707 11.4207 22.2707 14.1707 20.4307C16.5907 18.8107 16.5907 16.1707 14.1707 14.5607C11.4307 12.7307 6.9207 12.7307 4.1607 14.5607Z" stroke="white" stroke-width="1.5" stroke-linecap="round" stroke-linejoin="round"/>
</g>
</svg>
